<?xml version="1.0" standalone="no"?>
<!DOCTYPE svg PUBLIC "-//W3C//DTD SVG 20010904//EN"
 "http://www.w3.org/TR/2001/REC-SVG-20010904/DTD/svg10.dtd">
<svg version="1.0" xmlns="http://www.w3.org/2000/svg"
 width="500.000000pt" height="500.000000pt" viewBox="0 0 500.000000 500.000000"
 preserveAspectRatio="xMidYMid meet">
<metadata>
Created by potrace 1.14, written by Peter Selinger 2001-2017
</metadata>
<g transform="translate(0.000000,500.000000) scale(0.100000,-0.100000)"
fill="#000000" stroke="none">
<path d="M0 2500 l0 -2500 2500 0 2500 0 0 2500 0 2500 -2500 0 -2500 0 0
-2500z m2506 1989 c811 -79 1513 -679 1723 -1470 44 -164 61 -282 68 -466 l6
-163 -27 0 c-20 0 -30 -8 -43 -35 -16 -33 -16 -37 0 -70 9 -19 24 -35 33 -35
14 0 16 -8 10 -62 -4 -35 -23 -122 -41 -195 -226 -882 -1028 -1503 -1940
-1503 -308 0 -599 68 -880 205 -901 438 -1337 1474 -1024 2430 167 509 539
934 1024 1170 344 168 704 232 1091 194z m1784 -2163 c0 -53 -15 -68 -32 -32
-8 20 -8 32 0 51 18 38 32 30 32 -19z"/>
<path d="M2025 4023 c-402 -49 -706 -192 -965 -452 -91 -91 -218 -256 -207
-267 11 -11 472 -102 475 -94 13 37 141 195 212 263 249 238 579 367 935 367
261 0 533 -77 736 -209 l64 -41 -52 49 c-252 238 -676 394 -1054 390 -63 -1
-127 -4 -144 -6z"/>
<path d="M810 3191 c-14 -35 -9 -47 22 -54 13 -2 117 -32 232 -66 161 -48 211
-59 217 -49 11 17 22 88 15 95 -3 3 -56 16 -118 30 -122 26 -349 73 -353 73
-1 0 -8 -13 -15 -29z"/>
<path d="M3619 3107 c-96 -27 -147 -92 -135 -174 12 -88 71 -130 216 -152 110
-17 154 -54 131 -110 -15 -35 -42 -51 -102 -58 -62 -7 -130 17 -163 59 l-24
31 -41 -24 c-22 -12 -41 -26 -41 -29 0 -25 53 -79 100 -103 52 -27 61 -28 156
-25 91 3 105 6 143 31 56 37 81 80 81 140 0 108 -55 156 -210 182 -111 19
-140 34 -140 73 0 52 33 72 115 72 57 0 101 -16 124 -44 12 -14 17 -14 52 6
22 12 39 25 39 29 0 19 -54 68 -91 83 -57 23 -154 29 -210 13z"/>
<path d="M3075 3096 c-98 -31 -150 -79 -184 -171 -38 -102 -21 -225 42 -308
14 -18 49 -46 78 -62 50 -28 62 -30 154 -30 86 0 107 3 148 24 73 38 76 46 36
87 l-35 35 -45 -25 c-91 -52 -215 -25 -264 58 -20 34 -25 57 -25 107 0 79 21
123 79 164 37 26 51 30 109 30 53 0 75 -5 105 -24 l39 -24 35 36 36 35 -41 27
c-78 52 -182 68 -267 41z"/>
<path d="M845 3081 c-4 -12 0 -30 9 -43 20 -28 21 -72 2 -87 -10 -8 -13 -23
-9 -45 3 -20 1 -36 -6 -40 -6 -4 -11 -27 -11 -52 0 -31 -6 -50 -20 -64 -11
-11 -20 -27 -20 -35 0 -24 -46 -65 -72 -65 -34 -1 -120 -104 -116 -139 5 -44
35 -38 94 20 68 67 81 58 17 -11 -60 -65 -66 -76 -59 -106 11 -44 50 -31 128
41 39 36 74 63 77 60 3 -4 -31 -41 -77 -83 -45 -43 -82 -83 -82 -90 0 -23 20
-52 37 -52 16 0 274 238 300 276 21 32 3 91 -46 156 -45 59 -51 96 -23 121 27
25 51 20 112 -21 54 -36 83 -78 121 -174 l13 -33 4 34 c2 21 -10 72 -35 143
l-38 109 27 51 c15 28 27 52 25 54 -5 4 -294 87 -319 91 -20 4 -28 0 -33 -16z"/>
<path d="M2300 2816 l0 -286 55 0 55 0 0 85 0 85 108 0 c82 0 116 5 147 19
138 62 153 258 27 346 l-44 30 -174 3 -174 4 0 -286z m320 169 c37 -19 50 -43
50 -93 0 -29 -7 -46 -26 -66 -25 -25 -32 -26 -130 -26 l-104 0 0 100 0 100 90
0 c62 0 100 -5 120 -15z"/>
<path d="M563 2619 c-47 -72 1 -97 56 -29 35 44 34 55 -5 63 -21 4 -30 -2 -51
-34z"/>
<path d="M1550 2320 c0 -56 3 -70 15 -70 9 0 15 9 15 25 0 17 5 25 18 25 26 0
42 20 42 51 0 29 -15 39 -61 39 l-29 0 0 -70z m58 28 c2 -9 -4 -18 -13 -21
-11 -5 -15 0 -15 19 0 28 23 29 28 2z"/>
<path d="M1710 2380 c0 -5 14 -10 30 -10 17 0 30 -4 30 -8 0 -5 -13 -28 -30
-50 -16 -23 -30 -46 -30 -52 0 -5 25 -10 55 -10 30 0 55 5 55 10 0 6 -16 10
-35 10 -19 0 -35 3 -35 6 0 3 14 25 30 49 17 24 30 48 30 54 0 6 -21 11 -50
11 -27 0 -50 -4 -50 -10z"/>
<path d="M1956 2374 c-9 -9 -16 -32 -16 -54 0 -48 21 -70 66 -70 25 0 34 4 34
16 0 11 -5 14 -16 10 -34 -13 -54 3 -54 44 0 39 18 55 50 48 7 -2 15 3 17 10
7 18 -62 15 -81 -4z"/>
<path d="M2120 2320 l0 -70 45 0 c25 0 45 5 45 10 0 6 -13 10 -30 10 l-30 0 0
60 c0 47 -3 60 -15 60 -12 0 -15 -14 -15 -70z"/>
<path d="M2280 2320 l0 -70 45 0 c49 0 62 17 18 22 -38 4 -45 38 -9 38 16 0
26 6 26 15 0 9 -10 15 -26 15 -34 0 -26 24 9 28 41 5 22 22 -24 22 l-39 0 0
-70z"/>
<path d="M2475 2380 c-6 -9 -45 -120 -45 -127 0 -10 29 -1 34 12 3 9 18 15 36
15 20 0 30 -5 30 -15 0 -8 7 -15 15 -15 20 0 19 4 -7 78 -15 44 -27 62 -39 62
-10 0 -21 -4 -24 -10z m35 -57 c0 -7 -7 -13 -16 -13 -11 0 -14 5 -10 16 3 9 6
21 6 27 0 16 20 -14 20 -30z"/>
<path d="M2630 2320 c0 -54 3 -70 14 -70 11 0 16 15 18 52 l3 52 28 -52 c19
-35 35 -52 48 -52 17 0 19 7 19 70 0 54 -3 70 -14 70 -11 0 -16 -14 -18 -47
l-3 -48 -25 48 c-18 35 -31 47 -47 47 -22 0 -23 -4 -23 -70z"/>
<path d="M2850 2320 c0 -56 3 -70 15 -70 12 0 15 14 15 70 0 56 -3 70 -15 70
-12 0 -15 -14 -15 -70z"/>
<path d="M2967 2383 c-2 -5 -4 -36 -4 -70 0 -46 3 -63 13 -63 9 0 14 17 16 52
l3 52 28 -52 c19 -35 35 -52 48 -52 17 0 19 7 19 70 0 58 -3 70 -16 70 -13 0
-15 -9 -12 -45 2 -25 1 -45 -2 -45 -3 0 -17 21 -32 45 -25 41 -50 57 -61 38z"/>
<path d="M3190 2370 c-24 -24 -26 -67 -4 -98 13 -19 24 -22 57 -20 41 3 42 4
45 41 3 35 2 37 -27 37 -32 0 -42 -16 -16 -26 19 -8 20 -34 1 -34 -20 0 -46
28 -46 50 0 28 30 52 57 47 15 -3 23 1 23 9 0 22 -67 17 -90 -6z"/>
<path d="M3427 2383 c-18 -17 -6 -55 23 -71 35 -20 34 -38 -4 -35 -17 1 -26
-3 -26 -13 0 -19 64 -19 80 1 17 20 0 61 -29 70 -31 10 -27 39 4 33 17 -4 25
-1 25 8 0 14 -60 20 -73 7z"/>
<path d="M3590 2320 l0 -70 40 0 c45 0 55 17 13 22 -38 4 -45 38 -9 38 16 0
26 6 26 15 0 9 -10 15 -26 15 -34 0 -26 24 9 28 42 5 32 22 -13 22 l-40 0 0
-70z"/>
<path d="M3750 2320 c0 -56 3 -70 15 -70 9 0 15 9 15 25 0 14 4 25 9 25 5 0
16 -11 25 -25 9 -14 23 -25 32 -25 13 0 12 5 -4 28 -17 23 -18 30 -7 46 25 34
0 66 -52 66 l-33 0 0 -70z m59 37 c12 -15 5 -27 -16 -27 -7 0 -13 9 -13 20 0
23 13 26 29 7z"/>
<path d="M3920 2379 c0 -6 10 -38 21 -70 29 -78 49 -79 73 -1 10 31 21 63 23
70 3 6 -2 12 -10 12 -10 0 -22 -20 -33 -52 l-17 -53 -17 49 c-15 46 -40 74
-40 45z"/>
<path d="M4110 2320 c0 -56 3 -70 15 -70 12 0 15 14 15 70 0 56 -3 70 -15 70
-12 0 -15 -14 -15 -70z"/>
</g>
</svg>
