<svg width="17" height="17" viewBox="0 0 17 17" fill="none" xmlns="http://www.w3.org/2000/svg">
<g clip-path="url(#clip0_30_153)">
<path fill-rule="evenodd" clip-rule="evenodd" d="M16.6712 16.6712C16.2327 17.1096 15.5219 17.1096 15.0834 16.6712L0.328819 1.91649C-0.109606 1.47807 -0.109607 0.767244 0.328819 0.328819C0.767236 -0.109605 1.47807 -0.109606 1.91648 0.328816L16.6712 15.0834C17.1096 15.5219 17.1096 16.2327 16.6712 16.6712Z" fill="#1C4A36"/>
<path fill-rule="evenodd" clip-rule="evenodd" d="M0.328815 16.6712C0.767245 17.1096 1.47806 17.1096 1.91649 16.6712L16.6712 1.91649C17.1096 1.47807 17.1096 0.767244 16.6712 0.328819C16.2328 -0.109605 15.5219 -0.109607 15.0835 0.328817L0.328815 15.0834C-0.109604 15.5219 -0.109606 16.2327 0.328815 16.6712Z" fill="#1C4A36"/>
</g>
<defs>
<clipPath id="clip0_30_153">
<rect width="17" height="17" fill="white"/>
</clipPath>
</defs>
</svg>
