<svg width="28" height="17" viewBox="0 0 28 17" fill="none" xmlns="http://www.w3.org/2000/svg">
<path fill-rule="evenodd" clip-rule="evenodd" d="M27 1.06582C27 1.65445 26.5451 2.13164 25.984 2.13164H9.30726C8.74615 2.13164 8.29127 1.65445 8.29127 1.06582C8.29127 0.477179 8.74615 0 9.30726 0H25.984C26.5451 0 27 0.477179 27 1.06582ZM27 8.54953C27 9.13817 26.5451 9.61538 25.984 9.61538H4.01599C3.45487 9.61538 3 9.13817 3 8.54953C3 7.9609 3.45487 7.48371 4.01599 7.48371H25.984C26.5451 7.48371 27 7.9609 27 8.54953ZM27 15.9342C27 16.5227 26.5451 17 25.984 17H9.30726C8.74615 17 8.29127 16.5227 8.29127 15.9342C8.29127 15.3455 8.74615 14.8684 9.30726 14.8684H25.984C26.5451 14.8684 27 15.3455 27 15.9342Z" fill="#1C4A36"/>
</svg>
