<svg width="70" height="70" viewBox="0 0 70 70" fill="none" xmlns="http://www.w3.org/2000/svg">
<rect width="70" height="70" rx="5" fill="#0079b2"/>
<g clip-path="url(#clip0_14_107)">
<path d="M50.188 35.782H49.406V35C49.406 34.2881 48.8288 33.7109 48.1169 33.7109C47.405 33.7109 46.8278 34.2881 46.8278 35V35.782H46.0457C45.3338 35.782 44.7567 36.3592 44.7567 37.0711C44.7567 37.783 45.3338 38.3602 46.0457 38.3602H46.8278V39.1422C46.8278 39.8541 47.405 40.4313 48.1169 40.4313C48.8288 40.4313 49.406 39.8541 49.406 39.1422V38.3602H50.188C50.8999 38.3602 51.4771 37.783 51.4771 37.0711C51.4771 36.3592 50.9 35.782 50.188 35.782Z" fill="white"/>
<path d="M19.812 17.6492H20.594V18.4313C20.594 19.1432 21.1712 19.7203 21.8831 19.7203C22.595 19.7203 23.1722 19.1432 23.1722 18.4313V17.6492H23.9542C24.6661 17.6492 25.2433 17.0721 25.2433 16.3602C25.2433 15.6482 24.6661 15.0711 23.9542 15.0711H23.1722V14.2891C23.1722 13.5772 22.595 13 21.8831 13C21.1712 13 20.594 13.5772 20.594 14.2891V15.0711H19.812C19.1001 15.0711 18.5229 15.6482 18.5229 16.3602C18.5229 17.0721 19.1 17.6492 19.812 17.6492Z" fill="white"/>
<path d="M56.0923 17.8897C54.229 17.259 52.7446 15.7758 52.1122 13.9133C51.9515 13.3846 51.4601 13 50.8788 13C50.2998 13 49.81 13.382 49.6472 13.9075C49.0167 15.771 47.5336 17.2554 45.6709 17.8877C45.1422 18.0484 44.7574 18.5399 44.7574 19.1212C44.7574 19.7002 45.1394 20.1901 45.6651 20.3528C47.5284 20.9835 49.0129 22.4667 49.6452 24.3292C49.8059 24.858 50.2974 25.2426 50.8788 25.2426C51.4577 25.2426 51.9476 24.8606 52.1103 24.3351C52.7409 22.4716 54.224 20.9872 56.0867 20.3549C56.6153 20.1941 57 19.7026 57 19.1212C57 18.5423 56.618 18.0524 56.0923 17.8897Z" fill="white"/>
<path d="M20.3529 39.5234C20.9834 37.66 22.4664 36.1757 24.3289 35.5433C24.8578 35.3827 25.2427 34.8911 25.2427 34.3097C25.2427 33.7307 24.8607 33.2408 24.335 33.0781C22.4716 32.4476 20.9872 30.9644 20.3549 29.1018C20.1942 28.573 19.7027 28.1883 19.1213 28.1883C18.5424 28.1883 18.0524 28.5703 17.8898 29.0959C17.2591 30.9591 15.7761 32.4436 13.9138 33.0759C13.3848 33.2365 13 33.7282 13 34.3097C13 34.8886 13.382 35.3785 13.9077 35.5412C15.7711 36.1718 17.2555 37.6549 17.8878 39.5176C18.0485 40.0464 18.54 40.431 19.1213 40.431C19.7002 40.4309 20.1901 40.0489 20.3529 39.5234Z" fill="white"/>
<path d="M39.0506 14.2891C39.0506 13.5772 38.4734 13 37.7615 13H32.2386C31.5267 13 30.9495 13.5772 30.9495 14.2891V42.2703H39.0506V14.2891Z" fill="white"/>
<path d="M19.9036 55.7109C19.9036 56.4229 20.4808 57 21.1927 57H23.8797V54.2386C23.8797 53.5267 24.4569 52.9495 25.1688 52.9495C25.8807 52.9495 26.4578 53.5267 26.4578 54.2386V57H30.4339V54.2386C30.4339 53.5267 31.011 52.9495 31.723 52.9495C32.4349 52.9495 33.012 53.5267 33.012 54.2386V57H36.9881V54.2386C36.9881 53.5267 37.5652 52.9495 38.2771 52.9495C38.9891 52.9495 39.5662 53.5267 39.5662 54.2386V57H43.5422V54.2386C43.5422 53.5267 44.1194 52.9495 44.8313 52.9495C45.5432 52.9495 46.1203 53.5267 46.1203 54.2386V57H48.8073C49.5192 57 50.0964 56.4229 50.0964 55.7109V50.0047H19.9036V55.7109Z" fill="white"/>
<path d="M50.188 44.8484H19.812C19.1001 44.8484 18.5229 45.4256 18.5229 46.1375C18.5229 46.8494 19.1001 47.4266 19.812 47.4266H50.1881C50.9 47.4266 51.4771 46.8494 51.4771 46.1375C51.4771 45.4256 50.9 44.8484 50.188 44.8484Z" fill="white"/>
</g>
<defs>
<clipPath id="clip0_14_107">
<rect width="44" height="44" fill="white" transform="translate(13 13)"/>
</clipPath>
</defs>
</svg>
