<svg width="70" height="70" viewBox="0 0 70 70" fill="none" xmlns="http://www.w3.org/2000/svg">
<rect width="70" height="70" rx="5" fill="#0079b2"/>
<path d="M53.9842 37.75L52.5817 51.775C52.5134 52.4541 52.1951 53.0836 51.6885 53.541C51.1819 53.9984 50.5234 54.2511 49.8408 54.25H41.8292C42.1064 53.774 42.2726 53.2416 42.3154 52.6925C42.3583 52.1433 42.2767 51.5916 42.0767 51.0783L42.0583 51.0325L39.5558 45.3492C39.57 45.2611 39.5792 45.1724 39.5833 45.0833V43.25C39.5833 42.2775 39.197 41.3449 38.5094 40.6573C37.8218 39.9696 36.8891 39.5833 35.9167 39.5833H34.5325L34.3492 37.75H53.9842Z" fill="white"/>
<path d="M53.865 32.25H51.94C51.3722 30.6419 50.3198 29.2495 48.9276 28.2646C47.5354 27.2797 45.872 26.7509 44.1667 26.7509C42.4613 26.7509 40.7979 27.2797 39.4057 28.2646C38.0135 29.2495 36.9611 30.6419 36.3933 32.25H34.4683C35.0685 30.1407 36.3401 28.2845 38.0902 26.9629C39.8403 25.6413 41.9736 24.9264 44.1667 24.9264C46.3597 24.9264 48.493 25.6413 50.2431 26.9629C51.9932 28.2845 53.2648 30.1407 53.865 32.25Z" fill="white"/>
<path d="M54.25 35.9167H34.0834C33.8402 35.9167 33.6071 35.8201 33.4352 35.6482C33.2633 35.4763 33.1667 35.2431 33.1667 35C33.1667 34.7569 33.2633 34.5237 33.4352 34.3518C33.6071 34.1799 33.8402 34.0833 34.0834 34.0833H54.25C54.4931 34.0833 54.7263 34.1799 54.8982 34.3518C55.0701 34.5237 55.1667 34.7569 55.1667 35C55.1667 35.2431 55.0701 35.4763 54.8982 35.6482C54.7263 35.8201 54.4931 35.9167 54.25 35.9167Z" fill="white"/>
<path d="M18.5 35.9167C18.3356 35.9166 18.1742 35.8724 18.0327 35.7885C17.8913 35.7046 17.775 35.5843 17.6961 35.44L17.2377 34.6049C16.9861 34.1428 16.6068 33.7628 16.1451 33.5104L15.31 33.0521C15.1654 32.9733 15.0447 32.8569 14.9606 32.7153C14.8765 32.5736 14.8321 32.412 14.8321 32.2473C14.8321 32.0825 14.8765 31.9209 14.9606 31.7792C15.0447 31.6376 15.1654 31.5213 15.31 31.4424L16.1451 30.9841C16.6067 30.7324 16.986 30.353 17.2377 29.8914L17.6961 29.0563C17.7822 28.9212 17.901 28.81 18.0415 28.7329C18.1821 28.6558 18.3397 28.6154 18.5 28.6154C18.6602 28.6154 18.8179 28.6558 18.9584 28.7329C19.0989 28.81 19.2178 28.9212 19.3039 29.0563L19.7622 29.8914C20.0139 30.3536 20.3932 30.7335 20.8549 30.9859L21.69 31.4443C21.8346 31.5231 21.9553 31.6395 22.0394 31.7811C22.1235 31.9227 22.1679 32.0844 22.1679 32.2491C22.1679 32.4138 22.1235 32.5755 22.0394 32.7171C21.9553 32.8587 21.8346 32.9751 21.69 33.0539L20.8549 33.5123C20.3933 33.764 20.014 34.1433 19.7622 34.6049L19.3039 35.4409C19.2249 35.585 19.1085 35.7052 18.9671 35.7889C18.8257 35.8726 18.6643 35.9167 18.5 35.9167Z" fill="white"/>
<path d="M49.6667 24C49.5022 23.9999 49.3408 23.9557 49.1994 23.8718C49.058 23.7879 48.9417 23.6676 48.8628 23.5233L48.4044 22.6882C48.1528 22.2261 47.7735 21.8462 47.3118 21.5937L46.4767 21.1354C46.3321 21.0566 46.2114 20.9402 46.1273 20.7986C46.0432 20.657 45.9988 20.4953 45.9988 20.3306C45.9988 20.1659 46.0432 20.0042 46.1273 19.8626C46.2114 19.7209 46.3321 19.6046 46.4767 19.5257L47.3118 19.0674C47.7734 18.8157 48.1527 18.4363 48.4044 17.9747L48.8628 17.1397C48.9489 17.0045 49.0677 16.8933 49.2082 16.8162C49.3487 16.7391 49.5064 16.6987 49.6667 16.6987C49.8269 16.6987 49.9846 16.7391 50.1251 16.8162C50.2656 16.8933 50.3845 17.0045 50.4706 17.1397L50.9289 17.9747C51.1806 18.4369 51.5599 18.8168 52.0216 19.0692L52.8567 19.5276C53.0013 19.6064 53.122 19.7228 53.2061 19.8644C53.2902 20.006 53.3346 20.1677 53.3346 20.3324C53.3346 20.4971 53.2902 20.6588 53.2061 20.8004C53.122 20.942 53.0013 21.0584 52.8567 21.1372L52.0216 21.5956C51.56 21.8473 51.1806 22.2266 50.9289 22.6882L50.4706 23.5242C50.3915 23.6683 50.2752 23.7885 50.1338 23.8722C49.9923 23.9559 49.831 24 49.6667 24Z" fill="white"/>
<path d="M37.75 21.25H36.8334V20.3333C36.8334 20.0902 36.7368 19.8571 36.5649 19.6851C36.393 19.5132 36.1598 19.4167 35.9167 19.4167C35.6736 19.4167 35.4404 19.5132 35.2685 19.6851C35.0966 19.8571 35 20.0902 35 20.3333V21.25H34.0834C33.8402 21.25 33.6071 21.3466 33.4352 21.5185C33.2633 21.6904 33.1667 21.9235 33.1667 22.1667C33.1667 22.4098 33.2633 22.6429 33.4352 22.8148C33.6071 22.9867 33.8402 23.0833 34.0834 23.0833H35V24C35 24.2431 35.0966 24.4763 35.2685 24.6482C35.4404 24.8201 35.6736 24.9167 35.9167 24.9167C36.1598 24.9167 36.393 24.8201 36.5649 24.6482C36.7368 24.4763 36.8334 24.2431 36.8334 24V23.0833H37.75C37.9931 23.0833 38.2263 22.9867 38.3982 22.8148C38.5701 22.6429 38.6667 22.4098 38.6667 22.1667C38.6667 21.9235 38.5701 21.6904 38.3982 21.5185C38.2263 21.3466 37.9931 21.25 37.75 21.25Z" fill="white"/>
<path d="M20.3333 20.3333H19.4167V19.4167C19.4167 19.1736 19.3201 18.9404 19.1482 18.7685C18.9763 18.5966 18.7431 18.5 18.5 18.5C18.2569 18.5 18.0237 18.5966 17.8518 18.7685C17.6799 18.9404 17.5833 19.1736 17.5833 19.4167V20.3333H16.6667C16.4236 20.3333 16.1904 20.4299 16.0185 20.6018C15.8466 20.7737 15.75 21.0069 15.75 21.25C15.75 21.4931 15.8466 21.7263 16.0185 21.8982C16.1904 22.0701 16.4236 22.1667 16.6667 22.1667H17.5833V23.0833C17.5833 23.3264 17.6799 23.5596 17.8518 23.7315C18.0237 23.9034 18.2569 24 18.5 24C18.7431 24 18.9763 23.9034 19.1482 23.7315C19.3201 23.5596 19.4167 23.3264 19.4167 23.0833V22.1667H20.3333C20.5764 22.1667 20.8096 22.0701 20.9815 21.8982C21.1534 21.7263 21.25 21.4931 21.25 21.25C21.25 21.0069 21.1534 20.7737 20.9815 20.6018C20.8096 20.4299 20.5764 20.3333 20.3333 20.3333Z" fill="white"/>
<path d="M18.5 47.8333C17.9324 47.8306 17.3792 47.6547 16.9142 47.3292L14.9525 51.775C14.849 52.0521 14.814 52.3501 14.8506 52.6436C14.8872 52.9371 14.9943 53.2174 15.1627 53.4605C15.3311 53.7037 15.5559 53.9025 15.8178 54.0399C16.0796 54.1774 16.3709 54.2495 16.6667 54.25H18.5092L19.7558 47.8333H18.5Z" fill="white"/>
<path d="M25.045 47.8333L24.6234 54.25H26.75V47.8333H25.045Z" fill="white"/>
<path d="M33.7075 47.8333H32.1309L32.5525 54.25H34.9542L33.7075 47.8333Z" fill="white"/>
<path d="M40.3625 51.72L38.4192 47.3292C37.9542 47.6547 37.401 47.8306 36.8333 47.8333H35.5775L36.8242 54.25H38.6667C38.9624 54.2501 39.2536 54.1783 39.5155 54.041C39.7773 53.9037 40.0019 53.7049 40.17 53.4617C40.3433 53.2098 40.4516 52.9189 40.4852 52.615C40.5188 52.3111 40.4766 52.0036 40.3625 51.72Z" fill="white"/>
<path d="M30.2975 47.8333H28.5833V54.25H30.7191L30.2975 47.8333Z" fill="white"/>
<path d="M21.6258 47.8333L20.3792 54.25H22.7808L23.2025 47.8333H21.6258Z" fill="white"/>
<path d="M27.6666 15.75C28.1529 15.75 28.6192 15.9432 28.963 16.287C29.3068 16.6308 29.5 17.0971 29.5 17.5833V36.8333H25.8333V17.5833C25.8333 17.0971 26.0265 16.6308 26.3703 16.287C26.7141 15.9432 27.1804 15.75 27.6666 15.75Z" fill="white"/>
<path d="M23.0833 40.5C23.0833 40.0138 23.2765 39.5474 23.6203 39.2036C23.9641 38.8598 24.4304 38.6667 24.9166 38.6667H30.4166C30.9029 38.6667 31.3692 38.8598 31.713 39.2036C32.0568 39.5474 32.25 40.0138 32.25 40.5H23.0833Z" fill="white"/>
<path d="M36.8333 46H18.5C18.2569 46 18.0237 45.9034 17.8518 45.7315C17.6799 45.5596 17.5833 45.3265 17.5833 45.0833V44.1667C17.5833 43.6804 17.7765 43.2141 18.1203 42.8703C18.4641 42.5265 18.9304 42.3333 19.4166 42.3333H35.9166C36.4029 42.3333 36.8692 42.5265 37.213 42.8703C37.5568 43.2141 37.75 43.6804 37.75 44.1667V45.0833C37.75 45.3265 37.6534 45.5596 37.4815 45.7315C37.3096 45.9034 37.0764 46 36.8333 46Z" fill="white"/>
</svg>
