<svg width="70" height="70" viewBox="0 0 70 70" fill="none" xmlns="http://www.w3.org/2000/svg">
<rect width="70" height="70" rx="5" fill="#0079b2"/>
<g clip-path="url(#clip0_14_135)">
<path d="M29.1504 54.4187H26.229V47.98C25.8067 48.0329 25.3766 48.0604 24.9402 48.0604C24.5038 48.0604 24.0736 48.0329 23.6513 47.98V54.4187H20.7299C20.0181 54.4187 19.4411 54.9957 19.4411 55.7075C19.4411 56.4193 20.0181 56.9964 20.7299 56.9964H29.1504C29.8622 56.9964 30.4393 56.4193 30.4393 55.7075C30.4393 54.9957 29.8623 54.4187 29.1504 54.4187Z" fill="white"/>
<path d="M37.2102 18.5346C37.5087 18.3305 37.6872 17.9922 37.6872 17.6307C37.6872 17.2691 37.5087 16.9308 37.2102 16.7267L35.5714 15.6061L34.6209 13.625C34.4388 13.2452 34.0549 13.0036 33.6337 13.0036C33.2125 13.0036 32.8286 13.2452 32.6464 13.625L31.6959 15.6061L30.0571 16.7267C29.7586 16.9308 29.5801 17.2691 29.5801 17.6307C29.5801 17.9922 29.7586 18.3304 30.0571 18.5346L31.6959 19.6552L32.6464 21.6363C32.8286 22.0161 33.2125 22.2577 33.6337 22.2577C34.0549 22.2577 34.4388 22.0161 34.6209 21.6363L35.5714 19.6552L37.2102 18.5346Z" fill="white"/>
<path d="M31.3844 27.4388H24.3482C24.3482 28.6262 23.7631 29.7353 22.7831 30.4056L21.436 31.3267L20.6258 33.0155C20.0315 34.2543 18.7594 35.0549 17.3854 35.0549C17.3256 35.0549 17.2664 35.0515 17.2072 35.0484V37.7496C17.2072 42.0137 20.6762 45.4827 24.9403 45.4827C29.2043 45.4827 32.6734 42.0137 32.6734 37.7496V28.7277C32.6733 28.0159 32.0963 27.4388 31.3844 27.4388Z" fill="white"/>
<path d="M18.3017 31.9005L19.4107 29.5889L21.3278 28.278C21.6048 28.0885 21.7705 27.7745 21.7705 27.4389C21.7705 27.1033 21.6049 26.7893 21.3279 26.5999L19.4107 25.2889L18.3017 22.9773C18.1326 22.6247 17.7762 22.4005 17.3853 22.4005C16.9942 22.4005 16.6379 22.6247 16.4688 22.9773L15.3598 25.2889L13.4427 26.5998C13.1657 26.7892 13 27.1032 13 27.4388C13 27.7744 13.1657 28.0884 13.4427 28.2779L15.3598 29.5888L16.4688 31.9004C16.6379 32.2529 16.9942 32.4772 17.3853 32.4772C17.7763 32.4772 18.1326 32.253 18.3017 31.9005Z" fill="white"/>
<path d="M45.8997 40.7808C44.1115 40.7808 42.543 41.7654 42.543 42.8878C42.543 44.0102 44.1116 44.9949 45.8997 44.9949C47.6879 44.9949 49.2565 44.0102 49.2565 42.8878C49.2565 41.7654 47.688 40.7808 45.8997 40.7808Z" fill="white"/>
<path d="M54.3371 37.7052C53.59 36.4633 53.5777 35.0315 54.3029 33.7769L55.3595 31.9494C55.884 31.0422 56.0207 29.9898 55.7443 28.9863C55.4679 27.9828 54.8118 27.1487 53.8969 26.638L53.0601 26.1708H38.7629L37.9253 26.638C37.0103 27.1488 36.3541 27.9827 36.0778 28.9863C35.8014 29.9899 35.9381 31.0421 36.4626 31.9493L37.5159 33.7713C38.2414 35.0262 38.2287 36.4584 37.481 37.7005C35.3245 41.2831 34.47 45.6278 34.9411 50.6136C35.285 54.2524 38.3006 56.9964 41.9556 56.9964H49.8598C53.5149 56.9964 56.5304 54.2524 56.8743 50.6136C57.3452 45.6303 56.4916 41.2873 54.3371 37.7052ZM49.9427 46.3276C48.8444 47.1305 47.4086 47.5726 45.8997 47.5726C44.3908 47.5726 42.955 47.1304 41.8568 46.3276C40.6547 45.4489 39.9653 44.1952 39.9653 42.8878C39.9653 41.5803 40.6547 40.3265 41.8569 39.4479C42.955 38.6451 44.3909 38.203 45.8998 38.203C47.4087 38.203 48.8445 38.6452 49.9428 39.4479C51.1449 40.3266 51.8344 41.5803 51.8344 42.8878C51.8344 44.1952 51.1447 45.449 49.9427 46.3276Z" fill="white"/>
<path d="M51.0632 20.6718C51.0632 19.9601 50.4862 19.383 49.7744 19.383H42.0413C41.3295 19.383 40.7524 19.9601 40.7524 20.6718V23.5932H51.0632V20.6718Z" fill="white"/>
<path d="M48.4855 16.032C48.4855 15.3202 47.9085 14.7431 47.1967 14.7431H44.619C43.9072 14.7431 43.3301 15.3202 43.3301 16.032V16.8053H48.4855V16.032Z" fill="white"/>
</g>
<defs>
<clipPath id="clip0_14_135">
<rect width="44" height="44" fill="white" transform="translate(13 13)"/>
</clipPath>
</defs>
</svg>
