<svg width="70" height="70" viewBox="0 0 70 70" fill="none" xmlns="http://www.w3.org/2000/svg">
<rect width="70" height="70" rx="5" fill="#0079b2"/>
<g clip-path="url(#clip0_14_155)">
<path d="M45.6648 20.3531C47.528 20.9838 49.0124 22.4668 49.6448 24.3291C49.8054 24.8581 50.297 25.2429 50.8784 25.2429C51.4574 25.2429 51.9473 24.8609 52.11 24.3352C52.7406 22.4718 54.2236 20.9874 56.0863 20.3551C56.615 20.1944 56.9997 19.7029 56.9997 19.1216C56.9997 18.5426 56.6177 18.0527 56.0921 17.89C54.2289 17.2594 52.7445 15.7764 52.112 13.914C51.9514 13.3851 51.4599 13.0002 50.8784 13.0002C50.2994 13.0002 49.8095 13.3822 49.6468 13.9079C49.0162 15.7713 47.5332 17.2557 45.6705 17.888C45.1418 18.0487 44.7571 18.5402 44.7571 19.1216C44.7571 19.7006 45.1391 20.1905 45.6648 20.3531Z" fill="white"/>
<path d="M55.7109 30.2591H54.9289V29.4771C54.9289 28.7651 54.3518 28.188 53.6399 28.188C52.9279 28.188 52.3508 28.7651 52.3508 29.4771V30.2591H51.5688C50.8568 30.2591 50.2797 30.8362 50.2797 31.5481C50.2797 32.26 50.8568 32.8372 51.5688 32.8372H52.3509V33.6192C52.3509 34.3311 52.928 34.9083 53.6399 34.9083C54.3518 34.9083 54.929 34.3311 54.929 33.6192V32.8372H55.711C56.4229 32.8372 57.0001 32.26 57.0001 31.5481C57.0001 30.8362 56.4229 30.2591 55.7109 30.2591Z" fill="white"/>
<path d="M36.3807 17.6492H37.1628V18.4313C37.1628 19.1432 37.7399 19.7203 38.4519 19.7203C39.1638 19.7203 39.7409 19.1432 39.7409 18.4313V17.6492H40.5229C41.2349 17.6492 41.812 17.0721 41.812 16.3602C41.812 15.6482 41.2349 15.0711 40.5229 15.0711H39.7409V14.2891C39.7409 13.5772 39.1638 13 38.4519 13C37.7399 13 37.1628 13.5772 37.1628 14.2891V15.0711H36.3807C35.6688 15.0711 35.0916 15.6482 35.0916 16.3602C35.0916 17.0721 35.6688 17.6492 36.3807 17.6492Z" fill="white"/>
<path d="M47.826 34.9067V28.2356C47.826 25.2555 45.4139 22.8485 42.4389 22.8485H23.2659C20.2859 22.8485 17.8788 25.26 17.8788 28.2356V34.9067H18.2161C20.6969 34.9067 22.7577 36.9105 22.7577 39.4484V45.0015H42.9473V39.4484C42.9473 36.9602 44.958 34.9067 47.489 34.9067H47.826ZM24.7211 32.606C24.0095 32.606 23.432 32.0284 23.432 31.317C23.432 30.6056 24.0095 30.0279 24.7211 30.0279C25.4327 30.0279 26.0102 30.6056 26.0102 31.317C26.0102 32.0284 25.4327 32.606 24.7211 32.606ZM32.8524 32.606C32.1409 32.606 31.5634 32.0284 31.5634 31.317C31.5634 30.6056 32.1409 30.0279 32.8524 30.0279C33.564 30.0279 34.1415 30.6056 34.1415 31.317C34.1415 32.0284 33.564 32.606 32.8524 32.606ZM40.9837 32.606C40.2722 32.606 39.6947 32.0284 39.6947 31.317C39.6947 30.6056 40.2722 30.0279 40.9837 30.0279C41.6953 30.0279 42.2728 30.6056 42.2728 31.317C42.2728 32.0284 41.6953 32.606 40.9837 32.606Z" fill="white"/>
<path d="M18.216 37.4849H14.9635C13.8796 37.4849 13 38.3623 13 39.4484V50.5547C13 51.2666 13.5772 51.8438 14.2891 51.8438H18.8904C19.6023 51.8438 20.1795 51.2666 20.1795 50.5547V39.4484C20.1795 38.3619 19.2999 37.4849 18.216 37.4849Z" fill="white"/>
<path d="M42.9472 47.5796H22.7576V50.5547C22.7576 51.0066 22.679 51.4403 22.5359 51.8438H43.169C43.0259 51.4403 42.9472 51.0066 42.9472 50.5547V47.5796Z" fill="white"/>
<path d="M50.7413 37.4849H47.4888C46.4047 37.4849 45.5253 38.3623 45.5253 39.4484V50.5547C45.5253 51.2666 46.1024 51.8438 46.8143 51.8438H51.4157C52.1276 51.8438 52.7048 51.2666 52.7048 50.5547V39.4484C52.7048 38.362 51.8252 37.4849 50.7413 37.4849Z" fill="white"/>
<path d="M17.6013 55.7109C17.6013 56.4228 18.1785 57 18.8904 57C19.6023 57 20.1795 56.4228 20.1795 55.7109V54.4219H17.6013V55.7109Z" fill="white"/>
<path d="M45.5254 55.7109C45.5254 56.4228 46.1025 57 46.8144 57C47.5263 57 48.1035 56.4228 48.1035 55.7109V54.4219H45.5254V55.7109Z" fill="white"/>
</g>
<defs>
<clipPath id="clip0_14_155">
<rect width="44" height="44" fill="white" transform="translate(13 13)"/>
</clipPath>
</defs>
</svg>
