<svg width="70" height="70" viewBox="0 0 70 70" fill="none" xmlns="http://www.w3.org/2000/svg">
<rect width="70" height="70" rx="5" fill="#0079b2"/>
<g clip-path="url(#clip0_14_165)">
<path d="M42.6484 24.1718H47.8047V26.7499H42.6484V24.1718Z" fill="white"/>
<path d="M42.6484 54.4219C42.6484 55.8398 43.8089 57 45.2266 57C46.6441 57 47.8047 55.8395 47.8047 54.4219V29.3281H42.6484V54.4219Z" fill="white"/>
<path d="M28.8125 26.75C29.5244 26.75 30.1016 26.1729 30.1016 25.4609C30.1016 24.749 29.5244 24.1719 28.8125 24.1719C28.1006 24.1719 27.5234 24.749 27.5234 25.4609C27.5234 26.1729 28.1006 26.75 28.8125 26.75Z" fill="white"/>
<path d="M17.2109 27.2656C19.3467 27.2656 21.0781 25.5342 21.0781 23.3984C21.0781 21.2626 19.3467 19.5312 17.2109 19.5312C15.0751 19.5312 13.3438 21.2626 13.3438 23.3984C13.3438 25.5342 15.0751 27.2656 17.2109 27.2656Z" fill="white"/>
<path d="M19.3597 31.9822C19.3518 31.9821 19.3439 31.9821 19.3361 31.9821C17.5142 31.9821 15.9456 33.0842 15.2598 34.6562H38.136C38.0372 33.9829 37.757 33.3491 37.2944 32.7997C36.5947 31.969 35.5845 31.4875 34.6068 31.4631C33.7105 30.4005 32.3804 29.7676 30.9623 29.7676C29.7883 29.7676 28.6567 30.2085 27.7909 30.978C27.4715 30.906 27.1445 30.8674 26.8116 30.8625C26.0749 29.6825 24.7777 28.9414 23.329 28.9414C21.4324 28.9414 19.8317 30.2327 19.3597 31.9822Z" fill="white"/>
<path d="M38.5369 37.2344H14.2891C13.5772 37.2344 13 37.8115 13 38.5234C13 39.2353 13.5772 39.8125 14.2891 39.8125H38.5369C39.2488 39.8125 39.826 39.2353 39.826 38.5234C39.826 37.8115 39.2488 37.2344 38.5369 37.2344Z" fill="white"/>
<path d="M17.2901 53.0421C17.6524 55.3355 19.6005 57 21.9222 57H30.9019C33.2235 57 35.1715 55.3357 35.534 53.0427L37.256 42.3906H15.5694L17.2901 53.0421Z" fill="white"/>
<path d="M56.0547 19.0633V14.2891C56.0547 13.5772 55.4775 13 54.7656 13H52.4454V14.7616C52.4454 15.4735 51.8682 16.0507 51.1563 16.0507C50.4444 16.0507 49.8673 15.4735 49.8673 14.7616V13H47.2891V14.7616C47.2891 15.4735 46.7119 16.0507 46 16.0507C45.2881 16.0507 44.7109 15.4735 44.7109 14.7616V13H42.1329V14.7616C42.1329 15.4735 41.5557 16.0507 40.8438 16.0507C40.1319 16.0507 39.5548 15.4735 39.5548 14.7616V13H35.6876C34.9757 13 34.3985 13.5772 34.3985 14.2891V19.0633C33.8537 19.2139 33.4531 19.7119 33.4531 20.3046C33.4531 21.0165 34.0303 21.5937 34.7422 21.5937H55.7109C56.4228 21.5937 57 21.0165 57 20.3046C57 19.7119 56.5994 19.214 56.0547 19.0633Z" fill="white"/>
</g>
<defs>
<clipPath id="clip0_14_165">
<rect width="44" height="44" fill="white" transform="translate(13 13)"/>
</clipPath>
</defs>
</svg>
